<mxfile host="app.diagrams.net" modified="2021-12-01T13:27:27.110Z" agent="5.0 (Macintosh; Intel Mac OS X 10_15_7) AppleWebKit/605.1.15 (KHTML, like Gecko) Version/15.1 Safari/605.1.15" etag="amuuMfd1i_hleu1t0Ccz" version="15.8.3" type="github">
  <diagram name="Page-1" id="c4acf3e9-155e-7222-9cf6-157b1a14988f">
    <mxGraphModel dx="1383" dy="1122" grid="1" gridSize="10" guides="1" tooltips="1" connect="1" arrows="1" fold="1" page="1" pageScale="1" pageWidth="850" pageHeight="1100" background="none" math="0" shadow="0">
      <root>
        <mxCell id="0" />
        <mxCell id="1" parent="0" />
        <mxCell id="-JJhKJv4oReHi63oHuf7-1" value="Dune TD" style="swimlane;fontStyle=1;align=center;verticalAlign=top;childLayout=stackLayout;horizontal=1;startSize=26;horizontalStack=0;resizeParent=1;resizeParentMax=0;resizeLast=0;collapsible=1;marginBottom=0;" vertex="1" parent="1">
          <mxGeometry x="650" y="60" width="160" height="60" as="geometry">
            <mxRectangle x="310" y="40" width="80" height="26" as="alternateBounds" />
          </mxGeometry>
        </mxCell>
        <mxCell id="-JJhKJv4oReHi63oHuf7-3" value="" style="line;strokeWidth=1;fillColor=none;align=left;verticalAlign=middle;spacingTop=-1;spacingLeft=3;spacingRight=3;rotatable=0;labelPosition=right;points=[];portConstraint=eastwest;" vertex="1" parent="-JJhKJv4oReHi63oHuf7-1">
          <mxGeometry y="26" width="160" height="8" as="geometry" />
        </mxCell>
        <mxCell id="-JJhKJv4oReHi63oHuf7-4" value="+ main(String[] args): void" style="text;strokeColor=none;fillColor=none;align=left;verticalAlign=top;spacingLeft=4;spacingRight=4;overflow=hidden;rotatable=0;points=[[0,0.5],[1,0.5]];portConstraint=eastwest;" vertex="1" parent="-JJhKJv4oReHi63oHuf7-1">
          <mxGeometry y="34" width="160" height="26" as="geometry" />
        </mxCell>
        <mxCell id="-JJhKJv4oReHi63oHuf7-5" value="GameField" style="swimlane;fontStyle=1;align=center;verticalAlign=top;childLayout=stackLayout;horizontal=1;startSize=26;horizontalStack=0;resizeParent=1;resizeParentMax=0;resizeLast=0;collapsible=1;marginBottom=0;" vertex="1" parent="1">
          <mxGeometry x="391" y="200" width="160" height="110" as="geometry" />
        </mxCell>
        <mxCell id="-JJhKJv4oReHi63oHuf7-6" value="+ field: Unit [] []&#xa;+ wave: int" style="text;strokeColor=none;fillColor=none;align=left;verticalAlign=top;spacingLeft=4;spacingRight=4;overflow=hidden;rotatable=0;points=[[0,0.5],[1,0.5]];portConstraint=eastwest;" vertex="1" parent="-JJhKJv4oReHi63oHuf7-5">
          <mxGeometry y="26" width="160" height="34" as="geometry" />
        </mxCell>
        <mxCell id="-JJhKJv4oReHi63oHuf7-7" value="" style="line;strokeWidth=1;fillColor=none;align=left;verticalAlign=middle;spacingTop=-1;spacingLeft=3;spacingRight=3;rotatable=0;labelPosition=right;points=[];portConstraint=eastwest;" vertex="1" parent="-JJhKJv4oReHi63oHuf7-5">
          <mxGeometry y="60" width="160" height="8" as="geometry" />
        </mxCell>
        <mxCell id="-JJhKJv4oReHi63oHuf7-8" value="+nextWave(): void&#xa;+buildphase(): void" style="text;strokeColor=none;fillColor=none;align=left;verticalAlign=top;spacingLeft=4;spacingRight=4;overflow=hidden;rotatable=0;points=[[0,0.5],[1,0.5]];portConstraint=eastwest;" vertex="1" parent="-JJhKJv4oReHi63oHuf7-5">
          <mxGeometry y="68" width="160" height="42" as="geometry" />
        </mxCell>
        <mxCell id="-JJhKJv4oReHi63oHuf7-17" value="&lt;p style=&quot;margin: 0px ; margin-top: 4px ; text-align: center&quot;&gt;&lt;i&gt;&amp;lt;&amp;lt;abstract&amp;gt;&amp;gt;&lt;/i&gt;&lt;br&gt;&lt;b&gt;Unit&lt;/b&gt;&lt;/p&gt;&lt;hr size=&quot;1&quot;&gt;&lt;p style=&quot;margin: 0px ; margin-left: 4px&quot;&gt;+ posX: int&lt;br&gt;+ posY: int&lt;/p&gt;&lt;hr size=&quot;1&quot;&gt;&lt;p style=&quot;margin: 0px ; margin-left: 4px&quot;&gt;+ positionValid(posX int, posY int): boolean&lt;br&gt;&lt;/p&gt;" style="verticalAlign=top;align=left;overflow=fill;fontSize=12;fontFamily=Helvetica;html=1;labelBackgroundColor=none;" vertex="1" parent="1">
          <mxGeometry x="347.5" y="368" width="245" height="110" as="geometry" />
        </mxCell>
        <mxCell id="-JJhKJv4oReHi63oHuf7-26" value="FarmUnit" style="swimlane;fontStyle=1;align=center;verticalAlign=top;childLayout=stackLayout;horizontal=1;startSize=26;horizontalStack=0;resizeParent=1;resizeParentMax=0;resizeLast=0;collapsible=1;marginBottom=0;labelBackgroundColor=none;" vertex="1" parent="1">
          <mxGeometry x="110" y="390" width="210" height="210" as="geometry" />
        </mxCell>
        <mxCell id="-JJhKJv4oReHi63oHuf7-27" value="-lifepoints: int&#xa;-isDead: boolean&#xa;-portalDamage: int&#xa;-movementSpeed: int" style="text;strokeColor=none;fillColor=none;align=left;verticalAlign=top;spacingLeft=4;spacingRight=4;overflow=hidden;rotatable=0;points=[[0,0.5],[1,0.5]];portConstraint=eastwest;labelBackgroundColor=none;" vertex="1" parent="-JJhKJv4oReHi63oHuf7-26">
          <mxGeometry y="26" width="210" height="64" as="geometry" />
        </mxCell>
        <mxCell id="-JJhKJv4oReHi63oHuf7-28" value="" style="line;strokeWidth=1;fillColor=none;align=left;verticalAlign=middle;spacingTop=-1;spacingLeft=3;spacingRight=3;rotatable=0;labelPosition=right;points=[];portConstraint=eastwest;labelBackgroundColor=none;" vertex="1" parent="-JJhKJv4oReHi63oHuf7-26">
          <mxGeometry y="90" width="210" height="8" as="geometry" />
        </mxCell>
        <mxCell id="-JJhKJv4oReHi63oHuf7-29" value="+getLifepoints(): int&#xa;+getPortalDamage(): int&#xa;+dropSpice(): int&#xa;+getIsDead(): boolean&#xa;+setDead(): boolean&#xa;+setLifepoints(newLifepoints int): void&#xa;+move(): boolean" style="text;strokeColor=none;fillColor=none;align=left;verticalAlign=top;spacingLeft=4;spacingRight=4;overflow=hidden;rotatable=0;points=[[0,0.5],[1,0.5]];portConstraint=eastwest;labelBackgroundColor=none;" vertex="1" parent="-JJhKJv4oReHi63oHuf7-26">
          <mxGeometry y="98" width="210" height="112" as="geometry" />
        </mxCell>
        <mxCell id="-JJhKJv4oReHi63oHuf7-30" value="ArtilleryTower" style="swimlane;fontStyle=1;align=center;verticalAlign=top;childLayout=stackLayout;horizontal=1;startSize=26;horizontalStack=0;resizeParent=1;resizeParentMax=0;resizeLast=0;collapsible=1;marginBottom=0;labelBackgroundColor=none;" vertex="1" parent="1">
          <mxGeometry x="650" y="390" width="260" height="160" as="geometry" />
        </mxCell>
        <mxCell id="-JJhKJv4oReHi63oHuf7-31" value="-attackDamage: int&#xa;-attackRange: float&#xa;-buildCost: int" style="text;strokeColor=none;fillColor=none;align=left;verticalAlign=top;spacingLeft=4;spacingRight=4;overflow=hidden;rotatable=0;points=[[0,0.5],[1,0.5]];portConstraint=eastwest;labelBackgroundColor=none;" vertex="1" parent="-JJhKJv4oReHi63oHuf7-30">
          <mxGeometry y="26" width="260" height="54" as="geometry" />
        </mxCell>
        <mxCell id="-JJhKJv4oReHi63oHuf7-32" value="" style="line;strokeWidth=1;fillColor=none;align=left;verticalAlign=middle;spacingTop=-1;spacingLeft=3;spacingRight=3;rotatable=0;labelPosition=right;points=[];portConstraint=eastwest;labelBackgroundColor=none;" vertex="1" parent="-JJhKJv4oReHi63oHuf7-30">
          <mxGeometry y="80" width="260" height="8" as="geometry" />
        </mxCell>
        <mxCell id="-JJhKJv4oReHi63oHuf7-33" value="+getAttackDamage(): int&#xa;+getAttackRange(): int&#xa;+getBuildcost(): int&#xa;+shootUnit(enemy Unit, damage int): boolean" style="text;strokeColor=none;fillColor=none;align=left;verticalAlign=top;spacingLeft=4;spacingRight=4;overflow=hidden;rotatable=0;points=[[0,0.5],[1,0.5]];portConstraint=eastwest;labelBackgroundColor=none;" vertex="1" parent="-JJhKJv4oReHi63oHuf7-30">
          <mxGeometry y="88" width="260" height="72" as="geometry" />
        </mxCell>
        <mxCell id="-JJhKJv4oReHi63oHuf7-42" value="InfantryUnit" style="swimlane;fontStyle=1;align=center;verticalAlign=top;childLayout=stackLayout;horizontal=1;startSize=26;horizontalStack=0;resizeParent=1;resizeParentMax=0;resizeLast=0;collapsible=1;marginBottom=0;labelBackgroundColor=none;" vertex="1" parent="1">
          <mxGeometry x="110" y="610" width="210" height="210" as="geometry" />
        </mxCell>
        <mxCell id="-JJhKJv4oReHi63oHuf7-43" value="-lifepoints: int&#xa;-isDead: boolean&#xa;-portalDamage: int&#xa;-movementSpeed: int" style="text;strokeColor=none;fillColor=none;align=left;verticalAlign=top;spacingLeft=4;spacingRight=4;overflow=hidden;rotatable=0;points=[[0,0.5],[1,0.5]];portConstraint=eastwest;labelBackgroundColor=none;" vertex="1" parent="-JJhKJv4oReHi63oHuf7-42">
          <mxGeometry y="26" width="210" height="64" as="geometry" />
        </mxCell>
        <mxCell id="-JJhKJv4oReHi63oHuf7-44" value="" style="line;strokeWidth=1;fillColor=none;align=left;verticalAlign=middle;spacingTop=-1;spacingLeft=3;spacingRight=3;rotatable=0;labelPosition=right;points=[];portConstraint=eastwest;labelBackgroundColor=none;" vertex="1" parent="-JJhKJv4oReHi63oHuf7-42">
          <mxGeometry y="90" width="210" height="8" as="geometry" />
        </mxCell>
        <mxCell id="-JJhKJv4oReHi63oHuf7-45" value="+getLifepoints(): int&#xa;+getPortalDamage(): int&#xa;+dropSpice(): int&#xa;+getIsDead(): boolean&#xa;+setDead(): boolean&#xa;+setLifepoints(newLifepoints int): void&#xa;+move(): boolean" style="text;strokeColor=none;fillColor=none;align=left;verticalAlign=top;spacingLeft=4;spacingRight=4;overflow=hidden;rotatable=0;points=[[0,0.5],[1,0.5]];portConstraint=eastwest;labelBackgroundColor=none;" vertex="1" parent="-JJhKJv4oReHi63oHuf7-42">
          <mxGeometry y="98" width="210" height="112" as="geometry" />
        </mxCell>
        <mxCell id="-JJhKJv4oReHi63oHuf7-46" value="BossUnit" style="swimlane;fontStyle=1;align=center;verticalAlign=top;childLayout=stackLayout;horizontal=1;startSize=26;horizontalStack=0;resizeParent=1;resizeParentMax=0;resizeLast=0;collapsible=1;marginBottom=0;labelBackgroundColor=none;" vertex="1" parent="1">
          <mxGeometry x="110" y="850" width="210" height="210" as="geometry" />
        </mxCell>
        <mxCell id="-JJhKJv4oReHi63oHuf7-47" value="-lifepoints: int&#xa;-isDead: boolean&#xa;-portalDamage: int&#xa;-movementSpeed: int" style="text;strokeColor=none;fillColor=none;align=left;verticalAlign=top;spacingLeft=4;spacingRight=4;overflow=hidden;rotatable=0;points=[[0,0.5],[1,0.5]];portConstraint=eastwest;labelBackgroundColor=none;" vertex="1" parent="-JJhKJv4oReHi63oHuf7-46">
          <mxGeometry y="26" width="210" height="64" as="geometry" />
        </mxCell>
        <mxCell id="-JJhKJv4oReHi63oHuf7-48" value="" style="line;strokeWidth=1;fillColor=none;align=left;verticalAlign=middle;spacingTop=-1;spacingLeft=3;spacingRight=3;rotatable=0;labelPosition=right;points=[];portConstraint=eastwest;labelBackgroundColor=none;" vertex="1" parent="-JJhKJv4oReHi63oHuf7-46">
          <mxGeometry y="90" width="210" height="8" as="geometry" />
        </mxCell>
        <mxCell id="-JJhKJv4oReHi63oHuf7-49" value="+getLifepoints(): int&#xa;+getPortalDamage(): int&#xa;+dropSpice(): int&#xa;+getIsDead(): boolean&#xa;+setDead(): boolean&#xa;+setLifepoints(newLifepoints int): void&#xa;+move(): boolean" style="text;strokeColor=none;fillColor=none;align=left;verticalAlign=top;spacingLeft=4;spacingRight=4;overflow=hidden;rotatable=0;points=[[0,0.5],[1,0.5]];portConstraint=eastwest;labelBackgroundColor=none;" vertex="1" parent="-JJhKJv4oReHi63oHuf7-46">
          <mxGeometry y="98" width="210" height="112" as="geometry" />
        </mxCell>
        <mxCell id="-JJhKJv4oReHi63oHuf7-54" value="SlowTower" style="swimlane;fontStyle=1;align=center;verticalAlign=top;childLayout=stackLayout;horizontal=1;startSize=26;horizontalStack=0;resizeParent=1;resizeParentMax=0;resizeLast=0;collapsible=1;marginBottom=0;labelBackgroundColor=none;" vertex="1" parent="1">
          <mxGeometry x="630" y="820" width="280" height="160" as="geometry" />
        </mxCell>
        <mxCell id="-JJhKJv4oReHi63oHuf7-55" value="-slowAmount: int&#xa;-slowRange: float&#xa;-buildCost: int" style="text;strokeColor=none;fillColor=none;align=left;verticalAlign=top;spacingLeft=4;spacingRight=4;overflow=hidden;rotatable=0;points=[[0,0.5],[1,0.5]];portConstraint=eastwest;labelBackgroundColor=none;" vertex="1" parent="-JJhKJv4oReHi63oHuf7-54">
          <mxGeometry y="26" width="280" height="54" as="geometry" />
        </mxCell>
        <mxCell id="-JJhKJv4oReHi63oHuf7-56" value="" style="line;strokeWidth=1;fillColor=none;align=left;verticalAlign=middle;spacingTop=-1;spacingLeft=3;spacingRight=3;rotatable=0;labelPosition=right;points=[];portConstraint=eastwest;labelBackgroundColor=none;" vertex="1" parent="-JJhKJv4oReHi63oHuf7-54">
          <mxGeometry y="80" width="280" height="8" as="geometry" />
        </mxCell>
        <mxCell id="-JJhKJv4oReHi63oHuf7-57" value="+getSlowAmount(): int&#xa;+getAttackRange(): int&#xa;+getBuildcost(): int&#xa;+slowUnit(enemy Unit, slowAmount int): boolean" style="text;strokeColor=none;fillColor=none;align=left;verticalAlign=top;spacingLeft=4;spacingRight=4;overflow=hidden;rotatable=0;points=[[0,0.5],[1,0.5]];portConstraint=eastwest;labelBackgroundColor=none;" vertex="1" parent="-JJhKJv4oReHi63oHuf7-54">
          <mxGeometry y="88" width="280" height="72" as="geometry" />
        </mxCell>
        <mxCell id="-JJhKJv4oReHi63oHuf7-58" value="BombTower" style="swimlane;fontStyle=1;align=center;verticalAlign=top;childLayout=stackLayout;horizontal=1;startSize=26;horizontalStack=0;resizeParent=1;resizeParentMax=0;resizeLast=0;collapsible=1;marginBottom=0;labelBackgroundColor=none;" vertex="1" parent="1">
          <mxGeometry x="650" y="600" width="260" height="180" as="geometry" />
        </mxCell>
        <mxCell id="-JJhKJv4oReHi63oHuf7-59" value="-attackDamage: int&#xa;-attackRange: float&#xa;-buildCost: int&#xa;-bombRadius: int" style="text;strokeColor=none;fillColor=none;align=left;verticalAlign=top;spacingLeft=4;spacingRight=4;overflow=hidden;rotatable=0;points=[[0,0.5],[1,0.5]];portConstraint=eastwest;labelBackgroundColor=none;" vertex="1" parent="-JJhKJv4oReHi63oHuf7-58">
          <mxGeometry y="26" width="260" height="64" as="geometry" />
        </mxCell>
        <mxCell id="-JJhKJv4oReHi63oHuf7-60" value="" style="line;strokeWidth=1;fillColor=none;align=left;verticalAlign=middle;spacingTop=-1;spacingLeft=3;spacingRight=3;rotatable=0;labelPosition=right;points=[];portConstraint=eastwest;labelBackgroundColor=none;" vertex="1" parent="-JJhKJv4oReHi63oHuf7-58">
          <mxGeometry y="90" width="260" height="8" as="geometry" />
        </mxCell>
        <mxCell id="-JJhKJv4oReHi63oHuf7-61" value="+getAttackDamage(): int&#xa;+getAttackRange(): int&#xa;+getBuildcost(): int&#xa;+getBombRadius(): int&#xa;+bombUnit(enemy Unit, damage int): boolean" style="text;strokeColor=none;fillColor=none;align=left;verticalAlign=top;spacingLeft=4;spacingRight=4;overflow=hidden;rotatable=0;points=[[0,0.5],[1,0.5]];portConstraint=eastwest;labelBackgroundColor=none;" vertex="1" parent="-JJhKJv4oReHi63oHuf7-58">
          <mxGeometry y="98" width="260" height="82" as="geometry" />
        </mxCell>
        <mxCell id="-JJhKJv4oReHi63oHuf7-62" value="" style="endArrow=block;endSize=16;endFill=0;html=1;rounded=0;entryX=0.131;entryY=1;entryDx=0;entryDy=0;entryPerimeter=0;" edge="1" parent="1" target="-JJhKJv4oReHi63oHuf7-17">
          <mxGeometry width="160" relative="1" as="geometry">
            <mxPoint x="320" y="520" as="sourcePoint" />
            <mxPoint x="430" y="520" as="targetPoint" />
            <Array as="points">
              <mxPoint x="380" y="520" />
            </Array>
          </mxGeometry>
        </mxCell>
        <mxCell id="-JJhKJv4oReHi63oHuf7-67" value="" style="endArrow=block;endSize=16;endFill=0;html=1;rounded=0;entryX=0.392;entryY=1.009;entryDx=0;entryDy=0;entryPerimeter=0;exitX=1;exitY=0.844;exitDx=0;exitDy=0;exitPerimeter=0;" edge="1" parent="1" source="-JJhKJv4oReHi63oHuf7-47" target="-JJhKJv4oReHi63oHuf7-17">
          <mxGeometry width="160" relative="1" as="geometry">
            <mxPoint x="269" y="930" as="sourcePoint" />
            <mxPoint x="390" y="890" as="targetPoint" />
            <Array as="points">
              <mxPoint x="450" y="930" />
            </Array>
          </mxGeometry>
        </mxCell>
        <mxCell id="-JJhKJv4oReHi63oHuf7-68" value="" style="endArrow=block;endSize=16;endFill=0;html=1;rounded=0;entryX=0.931;entryY=1;entryDx=0;entryDy=0;exitX=0;exitY=0.5;exitDx=0;exitDy=0;entryPerimeter=0;" edge="1" parent="1" source="-JJhKJv4oReHi63oHuf7-33" target="-JJhKJv4oReHi63oHuf7-17">
          <mxGeometry width="160" relative="1" as="geometry">
            <mxPoint x="470" y="550" as="sourcePoint" />
            <mxPoint x="591.25" y="510" as="targetPoint" />
            <Array as="points">
              <mxPoint x="576" y="514" />
            </Array>
          </mxGeometry>
        </mxCell>
        <mxCell id="-JJhKJv4oReHi63oHuf7-69" value="" style="endArrow=block;endSize=16;endFill=0;html=1;rounded=0;exitX=1;exitY=0.5;exitDx=0;exitDy=0;entryX=0.25;entryY=1;entryDx=0;entryDy=0;" edge="1" parent="1" source="-JJhKJv4oReHi63oHuf7-43" target="-JJhKJv4oReHi63oHuf7-17">
          <mxGeometry width="160" relative="1" as="geometry">
            <mxPoint x="300" y="550" as="sourcePoint" />
            <mxPoint x="421" y="510" as="targetPoint" />
            <Array as="points">
              <mxPoint x="409" y="668" />
            </Array>
          </mxGeometry>
        </mxCell>
        <mxCell id="-JJhKJv4oReHi63oHuf7-70" value="" style="endArrow=block;endSize=16;endFill=0;html=1;rounded=0;entryX=0.612;entryY=1;entryDx=0;entryDy=0;entryPerimeter=0;" edge="1" parent="1" target="-JJhKJv4oReHi63oHuf7-17">
          <mxGeometry width="160" relative="1" as="geometry">
            <mxPoint x="630" y="890" as="sourcePoint" />
            <mxPoint x="520.095" y="850" as="targetPoint" />
            <Array as="points">
              <mxPoint x="500" y="890" />
            </Array>
          </mxGeometry>
        </mxCell>
        <mxCell id="-JJhKJv4oReHi63oHuf7-71" value="" style="endArrow=block;endSize=16;endFill=0;html=1;rounded=0;entryX=0.808;entryY=1.018;entryDx=0;entryDy=0;exitX=0;exitY=0.5;exitDx=0;exitDy=0;entryPerimeter=0;" edge="1" parent="1" target="-JJhKJv4oReHi63oHuf7-17">
          <mxGeometry width="160" relative="1" as="geometry">
            <mxPoint x="650" y="664" as="sourcePoint" />
            <mxPoint x="558.095" y="630" as="targetPoint" />
            <Array as="points">
              <mxPoint x="545" y="664" />
            </Array>
          </mxGeometry>
        </mxCell>
        <mxCell id="-JJhKJv4oReHi63oHuf7-72" value="1" style="endArrow=none;html=1;endSize=12;startArrow=diamondThin;startSize=14;startFill=1;edgeStyle=orthogonalEdgeStyle;align=left;verticalAlign=bottom;rounded=0;exitX=0.488;exitY=1;exitDx=0;exitDy=0;exitPerimeter=0;entryX=0.5;entryY=0;entryDx=0;entryDy=0;endFill=0;" edge="1" parent="1" source="-JJhKJv4oReHi63oHuf7-8" target="-JJhKJv4oReHi63oHuf7-17">
          <mxGeometry x="-0.3792" y="11" relative="1" as="geometry">
            <mxPoint x="460" y="350" as="sourcePoint" />
            <mxPoint x="620" y="350" as="targetPoint" />
            <mxPoint as="offset" />
          </mxGeometry>
        </mxCell>
        <mxCell id="-JJhKJv4oReHi63oHuf7-74" value="0..*" style="text;html=1;align=center;verticalAlign=middle;resizable=0;points=[];autosize=1;strokeColor=none;fillColor=none;" vertex="1" parent="1">
          <mxGeometry x="470" y="348" width="30" height="20" as="geometry" />
        </mxCell>
        <mxCell id="-JJhKJv4oReHi63oHuf7-75" value="1" style="endArrow=none;html=1;endSize=12;startArrow=diamondThin;startSize=14;startFill=1;edgeStyle=orthogonalEdgeStyle;align=left;verticalAlign=bottom;rounded=0;exitX=0.506;exitY=1;exitDx=0;exitDy=0;exitPerimeter=0;endFill=0;entryX=0.5;entryY=0;entryDx=0;entryDy=0;" edge="1" parent="1" source="-JJhKJv4oReHi63oHuf7-4" target="-JJhKJv4oReHi63oHuf7-5">
          <mxGeometry x="-0.7331" y="19" relative="1" as="geometry">
            <mxPoint x="370" y="240" as="sourcePoint" />
            <mxPoint x="401" y="150" as="targetPoint" />
            <mxPoint as="offset" />
          </mxGeometry>
        </mxCell>
        <mxCell id="-JJhKJv4oReHi63oHuf7-76" value="1" style="text;html=1;align=center;verticalAlign=middle;resizable=0;points=[];autosize=1;strokeColor=none;fillColor=none;" vertex="1" parent="1">
          <mxGeometry x="485" y="180" width="20" height="20" as="geometry" />
        </mxCell>
        <mxCell id="-JJhKJv4oReHi63oHuf7-82" value="GameSession" style="swimlane;fontStyle=1;align=center;verticalAlign=top;childLayout=stackLayout;horizontal=1;startSize=26;horizontalStack=0;resizeParent=1;resizeParentMax=0;resizeLast=0;collapsible=1;marginBottom=0;labelBackgroundColor=none;" vertex="1" parent="1">
          <mxGeometry x="760" y="218" width="160" height="150" as="geometry" />
        </mxCell>
        <mxCell id="-JJhKJv4oReHi63oHuf7-83" value="-gameStatus: int" style="text;strokeColor=none;fillColor=none;align=left;verticalAlign=top;spacingLeft=4;spacingRight=4;overflow=hidden;rotatable=0;points=[[0,0.5],[1,0.5]];portConstraint=eastwest;labelBackgroundColor=none;" vertex="1" parent="-JJhKJv4oReHi63oHuf7-82">
          <mxGeometry y="26" width="160" height="26" as="geometry" />
        </mxCell>
        <mxCell id="-JJhKJv4oReHi63oHuf7-84" value="" style="line;strokeWidth=1;fillColor=none;align=left;verticalAlign=middle;spacingTop=-1;spacingLeft=3;spacingRight=3;rotatable=0;labelPosition=right;points=[];portConstraint=eastwest;labelBackgroundColor=none;" vertex="1" parent="-JJhKJv4oReHi63oHuf7-82">
          <mxGeometry y="52" width="160" height="8" as="geometry" />
        </mxCell>
        <mxCell id="-JJhKJv4oReHi63oHuf7-85" value="+startGame(): void&#xa;+pauseGame(): void&#xa;+surrenderGame(): void&#xa;+continueGame(): void&#xa;+calchighscore(): int&#xa;+getGameStatus(): int&#xa;" style="text;strokeColor=none;fillColor=none;align=left;verticalAlign=top;spacingLeft=4;spacingRight=4;overflow=hidden;rotatable=0;points=[[0,0.5],[1,0.5]];portConstraint=eastwest;labelBackgroundColor=none;" vertex="1" parent="-JJhKJv4oReHi63oHuf7-82">
          <mxGeometry y="60" width="160" height="90" as="geometry" />
        </mxCell>
        <mxCell id="-JJhKJv4oReHi63oHuf7-87" value="1" style="endArrow=none;html=1;endSize=12;startArrow=diamondThin;startSize=14;startFill=1;edgeStyle=orthogonalEdgeStyle;align=left;verticalAlign=bottom;rounded=0;exitX=0.795;exitY=1.058;exitDx=0;exitDy=0;exitPerimeter=0;endFill=0;entryX=0.5;entryY=0;entryDx=0;entryDy=0;" edge="1" parent="1" source="-JJhKJv4oReHi63oHuf7-4" target="-JJhKJv4oReHi63oHuf7-82">
          <mxGeometry x="-0.8209" y="23" relative="1" as="geometry">
            <mxPoint x="750.96" y="140.0000000000001" as="sourcePoint" />
            <mxPoint x="491" y="220" as="targetPoint" />
            <mxPoint as="offset" />
            <Array as="points">
              <mxPoint x="777" y="185" />
              <mxPoint x="840" y="185" />
              <mxPoint x="840" y="218" />
            </Array>
          </mxGeometry>
        </mxCell>
        <mxCell id="-JJhKJv4oReHi63oHuf7-88" value="1" style="text;html=1;align=center;verticalAlign=middle;resizable=0;points=[];autosize=1;strokeColor=none;fillColor=none;" vertex="1" parent="1">
          <mxGeometry x="850" y="198" width="20" height="20" as="geometry" />
        </mxCell>
        <mxCell id="-JJhKJv4oReHi63oHuf7-89" value="Player" style="swimlane;fontStyle=1;align=center;verticalAlign=top;childLayout=stackLayout;horizontal=1;startSize=26;horizontalStack=0;resizeParent=1;resizeParentMax=0;resizeLast=0;collapsible=1;marginBottom=0;labelBackgroundColor=none;" vertex="1" parent="1">
          <mxGeometry x="1030" y="60" width="220" height="300" as="geometry" />
        </mxCell>
        <mxCell id="-JJhKJv4oReHi63oHuf7-90" value="-name: String&#xa;-playerID: int&#xa;-lifePoints: int&#xa;-spice: int&#xa;-highscore: int" style="text;strokeColor=none;fillColor=none;align=left;verticalAlign=top;spacingLeft=4;spacingRight=4;overflow=hidden;rotatable=0;points=[[0,0.5],[1,0.5]];portConstraint=eastwest;labelBackgroundColor=none;" vertex="1" parent="-JJhKJv4oReHi63oHuf7-89">
          <mxGeometry y="26" width="220" height="84" as="geometry" />
        </mxCell>
        <mxCell id="-JJhKJv4oReHi63oHuf7-91" value="" style="line;strokeWidth=1;fillColor=none;align=left;verticalAlign=middle;spacingTop=-1;spacingLeft=3;spacingRight=3;rotatable=0;labelPosition=right;points=[];portConstraint=eastwest;labelBackgroundColor=none;" vertex="1" parent="-JJhKJv4oReHi63oHuf7-89">
          <mxGeometry y="110" width="220" height="8" as="geometry" />
        </mxCell>
        <mxCell id="-JJhKJv4oReHi63oHuf7-92" value="+setName(newName String): void&#xa;+getName(): String&#xa;+setPlayerID(newID int): void&#xa;+getPlayerID(): int&#xa;+setLifePoints(newLifePoints int): void&#xa;+getLifePoints(): int&#xa;+setSpice(newSpice int): void&#xa;+getSpice(): int&#xa;+setHighscore(newHighscore int): void&#xa;+getHighscore(): int&#xa;+buildTower(tower Unit): boolean" style="text;strokeColor=none;fillColor=none;align=left;verticalAlign=top;spacingLeft=4;spacingRight=4;overflow=hidden;rotatable=0;points=[[0,0.5],[1,0.5]];portConstraint=eastwest;labelBackgroundColor=none;" vertex="1" parent="-JJhKJv4oReHi63oHuf7-89">
          <mxGeometry y="118" width="220" height="182" as="geometry" />
        </mxCell>
        <mxCell id="-JJhKJv4oReHi63oHuf7-93" value="1" style="endArrow=none;html=1;endSize=12;startArrow=diamondThin;startSize=14;startFill=1;edgeStyle=orthogonalEdgeStyle;align=left;verticalAlign=bottom;rounded=0;exitX=1.013;exitY=-0.038;exitDx=0;exitDy=0;exitPerimeter=0;endFill=0;entryX=0;entryY=0.5;entryDx=0;entryDy=0;" edge="1" parent="1" source="-JJhKJv4oReHi63oHuf7-4" target="-JJhKJv4oReHi63oHuf7-90">
          <mxGeometry x="-0.8209" y="23" relative="1" as="geometry">
            <mxPoint x="900" y="83.50800000000004" as="sourcePoint" />
            <mxPoint x="952.8" y="180" as="targetPoint" />
            <mxPoint as="offset" />
            <Array as="points">
              <mxPoint x="1030" y="93" />
            </Array>
          </mxGeometry>
        </mxCell>
      </root>
    </mxGraphModel>
  </diagram>
</mxfile>
